<svg xmlns="http://www.w3.org/2000/svg" viewBox="0 0 240 240" fill="none" aria-hidden="true">
  <defs>
    <linearGradient id="daisy" x1="0%" y1="0%" x2="100%" y2="100%">
      <stop offset="0%" style="stop-color:#fafcf8"/>
      <stop offset="100%" style="stop-color:#f0ead8"/>
    </linearGradient>
    <linearGradient id="lavender" x1="0%" y1="0%" x2="100%" y2="100%">
      <stop offset="0%" style="stop-color:#ebe6f2"/>
      <stop offset="100%" style="stop-color:#c4b8d4"/>
    </linearGradient>
    <linearGradient id="coral" x1="0%" y1="0%" x2="100%" y2="100%">
      <stop offset="0%" style="stop-color:#f5e8e4"/>
      <stop offset="100%" style="stop-color:#e8c4bc"/>
    </linearGradient>
    <linearGradient id="leafGrad" x1="0%" y1="0%" x2="0%" y2="100%">
      <stop offset="0%" style="stop-color:#c8dcc4"/>
      <stop offset="100%" style="stop-color:#8aab88"/>
    </linearGradient>
  </defs>
  <g transform="translate(62 78)">
    <ellipse rx="14" ry="26" fill="url(#daisy)" transform="rotate(0)"/>
    <ellipse rx="14" ry="26" fill="url(#daisy)" transform="rotate(45)"/>
    <ellipse rx="14" ry="26" fill="url(#daisy)" transform="rotate(90)"/>
    <ellipse rx="14" ry="26" fill="url(#daisy)" transform="rotate(135)"/>
    <circle r="14" fill="#e8dcc0"/>
    <circle r="8" fill="#d4c8a8"/>
  </g>
  <g transform="translate(168 58)">
    <ellipse rx="16" ry="22" fill="url(#coral)" transform="rotate(-15)"/>
    <ellipse rx="16" ry="22" fill="url(#coral)" transform="rotate(30)"/>
    <ellipse rx="16" ry="22" fill="url(#coral)" transform="rotate(75)"/>
    <ellipse rx="16" ry="22" fill="#edd8d0" transform="rotate(120)"/>
    <circle r="10" fill="#d4a8a0"/>
  </g>
  <g transform="translate(175 130)">
    <ellipse rx="10" ry="18" fill="url(#lavender)" transform="rotate(-10)"/>
    <ellipse rx="10" ry="18" fill="url(#lavender)" transform="rotate(20)"/>
    <ellipse rx="10" ry="18" fill="#d8cce8" transform="rotate(50)"/>
    <rect x="-3" y="22" width="6" height="42" rx="3" fill="#8aab88"/>
  </g>
  <g transform="translate(108 118)">
    <ellipse rx="24" ry="32" fill="#fafcf8" transform="rotate(-25)"/>
    <ellipse rx="24" ry="32" fill="#f2f6ee" transform="rotate(25)"/>
    <ellipse rx="24" ry="32" fill="#e8f0e4" transform="rotate(75)"/>
    <ellipse rx="24" ry="32" fill="#f5f2e8" transform="rotate(125)"/>
    <circle r="14" fill="#a8c4a4"/>
    <circle r="7" fill="#e8dcc0"/>
  </g>
  <path d="M108 145 Q98 185 82 215" stroke="#8aab88" stroke-width="6" fill="none" stroke-linecap="round"/>
  <path d="M108 152 Q140 172 172 192" stroke="#8aab88" stroke-width="5" fill="none" stroke-linecap="round"/>
  <ellipse cx="72" cy="178" rx="22" ry="12" fill="url(#leafGrad)" transform="rotate(-32 72 178)"/>
  <ellipse cx="148" cy="188" rx="20" ry="11" fill="url(#leafGrad)" transform="rotate(38 148 188)"/>
  <circle cx="38" cy="138" r="11" fill="#d8cce8"/>
  <circle cx="38" cy="138" r="5" fill="#c4b8d4"/>
  <circle cx="210" cy="148" r="10" fill="#f0ead8"/>
  <circle cx="210" cy="148" r="4" fill="#e8dcc0"/>
</svg>
